<?xml version="1.0" encoding="utf-8"?>
<!-- Generator: Adobe Illustrator 23.0.4, SVG Export Plug-In . SVG Version: 6.00 Build 0)  -->
<svg version="1.1" id="Layer_1" xmlns="http://www.w3.org/2000/svg" xmlns:xlink="http://www.w3.org/1999/xlink" x="0px" y="0px"
	 viewBox="0 0 864 864" style="enable-background:new 0 0 864 864;" xml:space="preserve">
<g>
	<path d="M284.6,411.4c33.1-27.9,67.3-46.7,107.9-22.6c0.3,1.7,0.5,3.5,0.8,5.2C357.1,399.8,320.8,405.6,284.6,411.4z"/>
	<path d="M376.7,437.1c1.3-4.3,2.2-7.5,2.7-9.4c-8.7,2.2-17.2,4.4-26.1,6.7c0-8,0-12.1,0-16.2c-4.1,1.1-8.4,1.6-12.1,3.5
		c-8,4-15.6,8.8-23.4,13.2c-1.2-1.2-2.3-2.5-3.5-3.7c3-3.1,5.6-6.9,9.1-9.3c25.3-16.9,50.8-20.7,76.7-1.1
		C392.2,437.2,392.2,437.2,376.7,437.1z"/>
	<path d="M553.1,461.3c8.4-13.9,18.3-17.2,29.5-11.2c3.2,1.7,5,6.1,7.4,9.3c-3.4,0.5-6.8,1-10.2,1.4c-3.5,0.3-7,0.4-10.5,0.5
		C563.9,461.3,558.5,461.3,553.1,461.3z"/>
	<path d="M778.5,393.3c9.7-17.7,13.9-36.2,10.7-56.5c-1.6-10,0-20.5-1-30.6c-1.7-18.1-2.7-36.4-6.9-54c-3.3-13.9-9.8-27.3-16.6-39.9
		c-10.1-18.5-14.4-41.2-36.1-51.9c-1.6-0.8-1.5-4.6-2.4-7c-1.5-3.8-2.4-10-4.9-10.8c-20.9-6.4-30.5-30.6-53.4-33.5
		c-1.8-0.2-3.3-2.3-5-3.5c-16.6-11.5-33-23.3-49.9-34.4c-4.8-3.2-11.2-3.8-16.6-6.4c-18.3-8.8-35.9-19.6-54.9-26.4
		c-13.5-4.8-28.8-5.1-43.4-6.1c-7.2-0.5-15.6-14.1-21.2,2.3c-18.4-18.4-39.7-0.6-58.1-8.4c-3.1,4.5-5.5,8.2-7.9,11.7
		c-13.7-7-34.4-4.7-45,3.9c-2.1,1.7-5.5,3.2-8.1,2.8c-21.4-2.9-40.2,0.7-52.7,20.2c-14.8-6.9-25-2.8-30.4,11.9
		c-13.4-3.7-22.7,1.4-30.2,14.3c-8.5,1.9-16.7,4.6-23.8,9.1c-8.4,5.3-17.3,10.9-23.4,18.5c-11.4,14.2-23.4,28.9-30.7,45.4
		c-6.8,15.3-28.8,22.8-23,44.4c0.4,1.4-2.6,3.8-4.1,5.6c-3.2,4-7.7,7.6-9.3,12.2c-5.2,14.6-11.7,29.3-13.3,44.4
		c-2,17.9-15.3,37.8,4.7,52.6c-4.5,1.6-11.8,2.6-12.1,4.5c-1,7,0.4,14.3,0.9,20.8c-2.4,5.5-5.3,10.1-6.4,15
		c-1.2,4.9-1.5,10.2-0.7,15.2c2,12.9,2.3,26.9,7.7,38.3c13.5,28.7,32.5,55,31.5,88.9c-0.1,3.7,4,7.8,6.6,11.4
		c7.8,10.6,15.8,21.1,23.9,31.4c2.7,3.5,5.9,6.7,9.3,9.5c10.7,8.4,26.5,14.4,31.4,25.3c7.5,16.7,19,27.7,32.1,38.2
		c6.5,5.2,16.2,7.5,20.6,13.8c13.9,19.6,25.8,40.7,39,60.8c2.8,4.2,7.7,7.1,12.2,11.2c-5.1,4.9-7.2,11.7,3.8,19.2
		c7,4.7,15.6,10.9,17.6,18.1c3.4,12.4,10.8,14.2,21.2,12.9c1.4,11.8,1.8,23.5,13.1,19.4c5.5,7,8.5,12.6,13.1,16.3
		c6,4.8,12.8,10.7,19.9,11.6c18.7,2.4,37.8,3.7,56.6,3c14.5-0.6,30.8-1.6,42.9-8.4c14-7.9,24.4-22.3,36.3-33.9
		c4.2-4,8.7-7.7,12.4-12.2c8.2-10.1,18.3-19.5,23.4-31c10.1-22.9,16.9-47.3,26-70.7c2.4-6.2,6.8-13.7,12.4-16.4
		c13.4-6.5,24.5-19,41.9-16.9c4,0.5,9.1-4.2,13.1-7.3c12.6-9.8,24-21.4,37.5-29.7c11.3-7,16.6-11.7,2.3-20.8
		c24.6-7.9,36.3-24.1,30.2-40.6c12.1-4.2,24.8-39.2,21.9-50.4c6.1-15.2,13.4-25.6,13.9-36.4c0.4-11,13.3-22,1.3-33.5
		C777.3,399.1,777.5,395.1,778.5,393.3z M251.5,552.5c-11.4-2.6-19-9.6-23-20.8c1-1.2,2.1-2.4,3.1-3.7c7.8,6.8,15.5,13.6,23.3,20.4
		C253.8,549.8,252.6,551.2,251.5,552.5z M360.2,721.2c-3.1,3.9-2.8,10.3-4.3,17c-2.2-4-3.5-8.6-6.4-10.8c-2.4-1.8-6.9-0.8-13-1.3
		c3.3-5.3,6.2-10,8.7-13.8c4.2,2.6,7.7,4.8,11.2,6.9c1.6-4.4,5-9,4.5-13.3c-0.9-8.4-3.8-16.6-5.9-24.8c1.8-0.4,3.6-0.8,5.4-1.1
		c1.6,7.4,1.5,15.9,5.3,22.1C371.6,711.8,365,715.2,360.2,721.2z M430.8,657c0.8,8,1.6,15.8,2.7,27.7c4.5-6.4,7-9.8,8.4-11.9
		c1.9,7.9,4.2,16.4,5.7,25c0.6,3.5-0.5,7.4-0.9,11c-3.1-1.8-6.1-3.5-9.2-5.3c-3.2-1.9-6.4-3.9-9.6-5.9c-2,3.3-4.7,6.5-5.9,10.1
		c-1.7,5-2.3,10.4-4.1,18.8c-14.4-21.3-14.4-21.3-33.9-2.4c0.7-22.1,0.7-22.1-4.2-22.3c1.1-7.4,3.1-14.9,2.9-22.3
		c-0.1-2-6.8-3.8-10.6-5.7c-1.4,0.8-2.8,1.6-4.3,2.5c-4.2-23.9-8.4-47.8-12.9-73.6c39,13.4,76.4,23.9,119.4,18
		C469.6,636.9,451.7,656.2,430.8,657z M385.5,604c-2.5,0-4.5-2-4.5-4.5v-4c0-2.5,2-4.5,4.5-4.5s4.5,2,4.5,4.5c0-3.6,2.9-6.5,6.5-6.5
		s6.5,2.9,6.5,6.5v9c0,3.6-2.9,6.5-6.5,6.5s-6.5-2.9-6.5-6.5v-5C390,602,388,604,385.5,604z M405,607v-11c0-3.9,3.2-7,7-7s7,3.1,7,7
		v11c0,3.8-3.2,7-7,7S405,610.8,405,607z M422,608v-9c0-4.4,3.6-8,8-8s8,3.6,8,8v9c0,4.4-3.6,8-8,8S422,612.4,422,608z M447,606v-7
		c0-4.4,3.6-8,8-8s8,3.6,8,8v7c0,4.4-3.6,8-8,8S447,610.4,447,606z M482,600.5c0,3-2.5,5.5-5.5,5.5s-5.5-2.5-5.5-5.5v-4
		c0-3,2.5-5.5,5.5-5.5s5.5,2.5,5.5,5.5V600.5z M608.9,574.5c-2.3-7.1-4.2-12.8-7.2-22c-12.2,19.4-4.4,46.2-32.5,56.8
		c1.5-8.6,1.8-14.8,3.9-20.4c4.9-13.6,2.8-24.5-8-34.9c-8.4-8.1-14.4-18.7-22.1-27.6c-9.4-10.8-18.9-21.7-29.6-31.2
		c-11.9-10.5-29.7-9.2-39,3c-2.7,3.5-0.1,11,0,16.7c4-2,8.2-3.8,12.1-6.1c3.1-1.8,5.7-4.4,8.6-6.6c2.8,3.7,6.2,7.1,8.3,11.2
		c3.3,6.4,5.6,13.2,9.7,23.1c-6.9,0.5-15.8,1.2-25.5,1.9c0.2-3.7,0.4-6.8,0.8-13.4c-16.9,7-31.4,17.1-46.7,18.3
		c-14.4,1.1-29.6-7-46.6-8.3c2.4,3.2,4.7,6.3,6.6,8.8c-5.8,5.2-12,10.9-15.3,13.9c-12.9,0-23.1,0-33.8,0c4.8-8.5,9.8-17.3,15-26.6
		c3.6,1.4,7.2,2.7,9.3,3.5c2.2-13.3,4.3-26.1,6.9-41.3c-15.2,10.4-33.5,18.5-45.4,32.2c-12.3,14.1-20.1,33-26.1,51.1
		c-2.7,8.1,4.2,19.2,6.2,29c1.2,5.9,4,15.2,1.5,17.3c-8,6.5-12.4-1.4-16.3-7.6c-1-1.6-2.5-2.9-5.6-6.4c-0.5,6.9-0.9,11.2-1.2,15.6
		c-1.4,0.9-2.9,1.8-4.3,2.7c-5.3-7.3-12.7-13.8-15.5-21.9c-11.4-33.7-21.6-67.5-13.2-104.2c3.4-14.8,1.1-30.8,2.5-46.1
		c1.3-14.1,4.5-28.1,6.2-42.1c1.1-9,2.3-18.2,1.6-27.1c-1.5-22.3,11.7-41.8,11.6-63.9c0-2.8,4.4-5.9,7.2-8.4
		c12.7-11.3,25.6-22.4,39.8-34.8c2.5,4.7,5.5,7.7,4.9,9.4c-5.9,17,11.2,13,17.3,19c0.4,0.4,5.7-2.4,6.8-4.6c1.1-2.3,0.6-6.3-0.9-8.4
		c-1.9-2.7-5.5-4.3-8.3-6.3c0-1.6,0-3.3,0.1-4.9c4.5,0,12.2-1.6,13.1,0.2c9,17.4,17.7,10.4,29.7-4.3c5.3,16.8,8.2,30.6,14.2,43
		c2.8,5.7,11.7,8.4,18.6,13c3-5,5.1-8.6,5.8-9.7c11,6.5,21.8,12.9,34.2,20.2c0.7,3.3,2.2,10.6,3.7,18c8.7-2.9,17.4-5.9,27.7-9.4
		c-4.5-6.5-7.7-11-9.5-13.5c11.2,1.1,23.2,0.9,34.3,3.8c6.4,1.7,11.4,8.5,20.5,15.8c-12.6,3.9-21,7.7-29.6,8.8
		c-17.5,2.3-36.2,6.7-40.3,31.4c-3.5-6.5-6-11.2-8.7-16.3c-12.3,11.8-11.9,25.9-3.3,30.4c-1,11-1.6,20.3-2.8,29.6
		c-0.8,6.5-2.8,12.9-3.5,19.4c-0.6,5.2-2,12.5,0.6,15.2c3,3,10.3,3.1,15.4,2.4c11.2-1.5,22.2-4.2,34.9-6.7c1.3-4,3.8-11.3,6.7-20
		c-8.4-5.7-18.2-12.8-11.8-26.8c13.6,1.3,28.6,10.1,35.4-8c9.5,3.9,18.1,7.4,26.8,11c0.9-0.8,1.8-1.7,2.7-2.5
		c-1.8-3.6-3.4-10.2-5.4-10.3c-19.6-0.8-36.3-18.6-57.7-9.4c-2.8,1.2-8.3-3.8-12.6-5.9c0.5-2.2,1.1-4.5,1.6-6.7
		c22.6,1,45.3,1.3,67.7,3.5c13.9,1.4,18.4,14.3,12.1,27c-1.2,2.4,0.5,8.3,2.8,10.1c5.2,4,11.3,7,17.5,9.2
		c12.5,4.6,20.9,11.2,17,26.2c-0.5,1.8-0.3,4.4,0.6,6C629.2,509.3,617.5,540.8,608.9,574.5z M667.9,506c-3,5.3-10.3,8.2-17.4,9
		c5-9.2,10.1-18.4,15.1-27.6c1,0,1.9-0.1,2.9-0.1C668.5,493.7,670.6,501.2,667.9,506z"/>
</g>
</svg>
