<?xml version="1.0" encoding="UTF-8" standalone="no"?>
<!-- Generator: Adobe Adobe Illustrator 24.2.0, SVG Export Plug-In . SVG Version: 6.00 Build 0)  -->

<svg
   version="1.1"
   x="0px"
   y="0px"
   width="104.54546"
   height="132.73"
   viewBox="0 0 104.54545 132.72999"
   xml:space="preserve"
   id="svg98"
   xmlns="http://www.w3.org/2000/svg"
   xmlns:svg="http://www.w3.org/2000/svg"><defs
   id="defs102" />
<style
   type="text/css"
   id="style69">
	.st0{stroke:#000000;stroke-miterlimit:10;}
	.st1{fill-rule:evenodd;clip-rule:evenodd;}
</style>
<g
   id="Layer_1"
   transform="translate(-63.424547,-70.76)">
	<g
   id="g81">
		<path
   class="st0"
   d="m 87.22,127.81 c 4.24,-3.56 8.62,-5.95 13.81,-2.88 0.04,0.22 0.06,0.45 0.1,0.66 -4.63,0.74 -9.27,1.48 -13.91,2.22 z"
   id="path71" />
		<path
   class="st0"
   d="m 99.01,131.08 c 0.17,-0.55 0.28,-0.96 0.35,-1.2 -1.11,0.28 -2.2,0.56 -3.34,0.85 0,-1.02 0,-1.54 0,-2.07 -0.52,0.14 -1.08,0.2 -1.55,0.45 -1.02,0.51 -2,1.12 -3,1.68 -0.15,-0.15 -0.29,-0.32 -0.45,-0.47 0.38,-0.4 0.72,-0.88 1.16,-1.19 3.24,-2.15 6.5,-2.64 9.82,-0.14 -1,2.11 -1,2.11 -2.99,2.09 z"
   id="path73" />
		<path
   class="st0"
   d="m 109.27,134.42 c -0.08,0.66 -0.26,1.59 0.08,1.94 0.38,0.38 1.32,0.4 1.97,0.31 0.81,-0.11 1.62,-0.27 2.46,-0.44 0.35,-1.65 0.74,-3.29 1.14,-4.93 -0.08,-0.41 -0.05,-0.88 0.21,-1.44 0.05,0 0.09,0.01 0.14,0.02 0.23,-0.89 0.46,-1.78 0.7,-2.67 -0.2,0.05 -0.4,0.11 -0.61,0.2 -0.36,0.15 -1.06,-0.48 -1.61,-0.75 0.06,-0.28 0.14,-0.57 0.2,-0.85 0.79,0.03 1.58,0.06 2.37,0.09 0.32,-1.21 0.65,-2.41 0.98,-3.61 -0.18,0.04 -0.36,0.08 -0.53,0.11 -2.24,0.29 -4.63,0.85 -5.16,4 -0.45,-0.83 -0.77,-1.43 -1.11,-2.08 -1.57,1.5 -1.52,3.3 -0.42,3.88 -0.13,1.4 -0.2,2.59 -0.36,3.77 -0.11,0.81 -0.36,1.63 -0.45,2.45 z"
   id="path75" />
		<path
   class="st0"
   d="m 112.97,140.28 c 0.14,-0.77 0.27,-1.54 0.43,-2.32 0.02,-0.1 0.04,-0.19 0.06,-0.29 -0.75,0.15 -1.44,0.55 -1.94,1.2 -0.35,0.45 -0.01,1.4 0,2.13 0.48,-0.24 0.98,-0.46 1.45,-0.72 z"
   id="path77" />
		<path
   class="st0"
   d="m 108.52,171.16 c 1.19,-3.46 1.86,-6.24 1.56,-9.91 -0.12,-1.46 -0.15,-2.86 -0.06,-4.25 -1.04,1.15 -2.49,2.05 -4.08,2.11 0.1,1.02 0.2,2.01 0.35,3.53 0.58,-0.82 0.9,-1.25 1.08,-1.52 0.24,1.01 0.54,2.09 0.73,3.19 0.08,0.45 -0.06,0.94 -0.12,1.4 -0.4,-0.23 -0.78,-0.45 -1.18,-0.68 -0.41,-0.24 -0.82,-0.5 -1.23,-0.75 -0.26,0.42 -0.6,0.83 -0.76,1.29 -0.22,0.64 -0.29,1.33 -0.52,2.4 -1.84,-2.72 -1.84,-2.72 -4.34,-0.31 0.09,-2.82 0.09,-2.82 -0.54,-2.84 0.14,-0.94 0.4,-1.9 0.37,-2.84 -0.01,-0.26 -0.87,-0.48 -1.36,-0.73 -0.18,0.1 -0.36,0.2 -0.55,0.32 -0.54,-3.05 -1.08,-6.09 -1.65,-9.38 4.63,1.58 9.09,2.83 14.1,2.4 0.07,-0.38 0.12,-0.75 0.21,-1.13 0.83,-3.62 1.4,-7.22 2.02,-10.84 -1.85,0.85 -3.49,1.86 -5.21,2 -1.84,0.14 -3.79,-0.89 -5.97,-1.06 0.31,0.41 0.6,0.8 0.84,1.12 -0.74,0.66 -1.54,1.39 -1.96,1.77 h -4.33 c 0.61,-1.08 1.25,-2.21 1.92,-3.39 0.46,0.18 0.92,0.34 1.19,0.45 0.28,-1.7 0.55,-3.33 0.88,-5.26 -1.95,1.33 -4.29,2.36 -5.81,4.1 -1.57,1.8 -2.57,4.21 -3.34,6.51 -0.35,1.03 0.54,2.45 0.79,3.7 0.15,0.75 0.51,1.94 0.19,2.21 -1.02,0.83 -1.59,-0.18 -2.09,-0.97 -0.13,-0.2 -0.32,-0.37 -0.72,-0.82 -0.06,0.88 -0.12,1.43 -0.15,1.99 -0.18,0.11 -0.37,0.23 -0.55,0.34 -0.68,-0.93 -1.63,-1.76 -1.98,-2.79 -1.46,-4.3 -2.77,-8.6 -1.69,-13.28 0.44,-1.89 0.14,-3.93 0.32,-5.88 0.17,-1.8 0.58,-3.58 0.79,-5.37 0.14,-1.15 0.29,-2.32 0.2,-3.45 -0.19,-2.84 1.5,-5.33 1.48,-8.15 0,-0.36 0.56,-0.75 0.92,-1.07 1.63,-1.44 3.28,-2.86 5.1,-4.44 0.32,0.6 0.7,0.98 0.63,1.2 -0.76,2.17 1.43,1.66 2.21,2.42 0.05,0.05 0.73,-0.31 0.87,-0.59 0.14,-0.29 0.08,-0.8 -0.12,-1.07 -0.24,-0.34 -0.7,-0.55 -1.06,-0.8 0,-0.2 0,-0.42 0.01,-0.62 0.58,0 1.56,-0.2 1.68,0.03 1.15,2.22 2.27,1.33 3.8,-0.55 0.68,2.14 1.05,3.9 1.82,5.48 0.36,0.73 1.5,1.07 2.38,1.66 0.38,-0.64 0.65,-1.1 0.74,-1.24 1.41,0.83 2.79,1.64 4.38,2.58 0.09,0.42 0.28,1.35 0.47,2.29 1.11,-0.37 2.23,-0.75 3.55,-1.2 -0.58,-0.83 -0.99,-1.4 -1.22,-1.72 1.43,0.14 2.97,0.11 4.39,0.48 0.06,0.02 0.12,0.04 0.18,0.07 1.46,-5.33 2.86,-10.66 3.82,-16.06 1.06,-5.97 2.59,-10.73 5.33,-16.18 0.49,-0.98 0.96,-1.94 1.4,-2.91 -0.49,-0.18 -1.04,-0.29 -1.52,-0.53 -2.34,-1.12 -4.6,-2.5 -7.03,-3.37 -1.73,-0.61 -3.69,-0.65 -5.56,-0.78 -0.92,-0.06 -2,-1.8 -2.71,0.29 -2.36,-2.35 -5.08,-0.08 -7.44,-1.07 -0.4,0.57 -0.7,1.05 -1.01,1.49 -1.75,-0.89 -4.4,-0.6 -5.76,0.5 -0.27,0.22 -0.7,0.41 -1.04,0.36 -2.74,-0.37 -5.15,0.09 -6.75,2.58 -1.89,-0.88 -3.2,-0.36 -3.89,1.52 -1.72,-0.47 -2.91,0.18 -3.87,1.82 -1.09,0.24 -2.14,0.59 -3.05,1.16 -1.08,0.68 -2.21,1.39 -3,2.36 -1.46,1.81 -3,3.68 -3.93,5.79 -0.87,1.95 -3.69,2.91 -2.94,5.66 0.05,0.18 -0.33,0.48 -0.52,0.71 -0.41,0.51 -0.99,0.97 -1.19,1.56 -0.67,1.86 -1.5,3.74 -1.7,5.66 -0.26,2.28 -1.96,4.82 0.6,6.71 -0.58,0.2 -1.51,0.33 -1.55,0.57 -0.13,0.89 0.05,1.82 0.12,2.65 -0.31,0.7 -0.68,1.29 -0.82,1.91 -0.15,0.62 -0.19,1.3 -0.09,1.94 0.26,1.64 0.29,3.43 0.99,4.88 1.73,3.66 4.16,7.01 4.03,11.33 -0.01,0.47 0.51,0.99 0.84,1.45 1,1.35 2.02,2.69 3.06,4 0.35,0.45 0.76,0.85 1.19,1.21 1.37,1.07 3.39,1.84 4.02,3.23 0.96,2.13 2.43,3.53 4.11,4.87 0.83,0.66 2.07,0.96 2.64,1.76 1.78,2.5 3.3,5.19 4.99,7.75 0.36,0.54 0.99,0.91 1.56,1.43 -0.65,0.62 -0.92,1.49 0.49,2.45 0.9,0.6 2,1.39 2.25,2.31 0.44,1.58 1.38,1.81 2.71,1.64 0.18,1.5 0.23,3 1.68,2.47 0.7,0.89 1.09,1.61 1.68,2.08 0.77,0.61 1.64,1.36 2.55,1.48 1.46,0.19 2.94,0.31 4.41,0.37 -0.15,-2.4 0.62,-5.08 1.34,-7.19 z m -0.51,-19.44 c 0,-0.56 0.46,-1.02 1.02,-1.02 0.56,0 1.02,0.46 1.02,1.02 v 0.89 c 0,0.56 -0.46,1.02 -1.02,1.02 -0.56,0 -1.02,-0.46 -1.02,-1.02 z m -3.2,0 c 0,-0.56 0.46,-1.02 1.02,-1.02 0.56,0 1.02,0.46 1.02,1.02 v 1.15 c 0,0.56 -0.46,1.02 -1.02,1.02 -0.56,0 -1.02,-0.46 -1.02,-1.02 z m -2.17,-0.38 c 0,-0.5 0.41,-0.89 0.9,-0.89 0.49,0 0.9,0.4 0.9,0.89 v 1.4 c 0,0.48 -0.41,0.89 -0.9,0.89 -0.49,0 -0.9,-0.41 -0.9,-0.89 z m -3.08,-0.06 c 0,-0.32 0.26,-0.57 0.58,-0.57 0.32,0 0.58,0.26 0.58,0.57 0,-0.46 0.37,-0.83 0.83,-0.83 0.46,0 0.83,0.37 0.83,0.83 v 1.15 c 0,0.46 -0.37,0.83 -0.83,0.83 -0.46,0 -0.83,-0.37 -0.83,-0.83 v -0.64 c 0,0.32 -0.26,0.57 -0.58,0.57 -0.32,0 -0.58,-0.26 -0.58,-0.57 z M 82.98,145.8 c -1.46,-0.33 -2.43,-1.22 -2.94,-2.65 0.13,-0.15 0.27,-0.31 0.4,-0.47 1,0.87 1.98,1.73 2.98,2.6 -0.14,0.17 -0.29,0.35 -0.44,0.52 z m 13.92,21.5 c -0.4,0.5 -0.36,1.31 -0.55,2.17 -0.28,-0.51 -0.45,-1.1 -0.82,-1.38 -0.31,-0.23 -0.88,-0.1 -1.66,-0.17 0.42,-0.68 0.79,-1.27 1.11,-1.76 0.54,0.33 0.99,0.61 1.43,0.88 0.2,-0.56 0.64,-1.15 0.58,-1.7 -0.12,-1.07 -0.49,-2.12 -0.76,-3.16 0.23,-0.05 0.46,-0.1 0.69,-0.14 0.2,0.94 0.19,2.03 0.68,2.82 0.76,1.24 -0.09,1.68 -0.7,2.44 z"
   id="path79" />
	</g>
</g>
<g
   id="Layer_2"
   transform="translate(-63.424547,-70.76)">
	<g
   id="g90">
		<g
   id="g88">
			<path
   class="st1"
   d="M 91.94,203.49 120.29,70.76 h 17.92 L 117,169.75 c -3.97,18.51 -7.25,33.74 -25.06,33.74 z"
   id="path84" />
			<path
   class="st1"
   d="M 126.15,179.95 149.46,71 l 18.51,-0.23 -17.34,80.36 c -2.69,13.35 -8.08,28.35 -24.48,28.82 z"
   id="path86" />
		</g>
	</g>
</g>
<g
   id="Layer_3"
   transform="translate(-63.424547,-70.76)">
	<path
   d="m 101.33,148.74 c -0.55,-0.01 -1.05,0.27 -1.52,0.56 -0.45,0.28 -0.9,0.6 -1.18,1.06 -0.28,0.46 -0.33,1.09 0,1.51 0.16,0.21 0.4,0.35 0.63,0.48 0.36,0.2 0.73,0.41 1.09,0.61 0.23,0.13 0.47,0.26 0.71,0.36 0.26,0.1 0.53,0.16 0.81,0.23 0.36,0.08 0.72,0.16 1.07,0.25 0.53,0.12 1.16,0.23 1.58,-0.13 0.19,-0.16 0.31,-0.4 0.41,-0.63 0.19,-0.44 0.37,-0.89 0.51,-1.34 0.25,-0.79 0.42,-1.7 0.02,-2.43 -0.21,-0.4 -0.57,-0.7 -0.97,-0.92 -0.69,-0.38 -1.53,-0.51 -2.29,-0.3 -0.5,0.13 -0.97,0.43 -0.87,0.69 z"
   id="path93" />
	<path
   d="M 104.23,137.67"
   id="path95" />
</g>
</svg>
